HIERARCHY
ROOT Hips
{
	OFFSET 34.768398 7.341424 99.096100
	CHANNELS 6 Xposition Yposition Zposition Xrotation Yrotation Zrotation
	JOINT spine
	{
		OFFSET 0.000000 -0.507025 8.817047
		CHANNELS 3 Xrotation Yrotation Zrotation
		JOINT spine1
		{
			OFFSET 0.000000 -0.000002 10.776596
			CHANNELS 3 Xrotation Yrotation Zrotation
			JOINT spine2
			{
				OFFSET 0.000000 -0.000001 10.325897
				CHANNELS 3 Xrotation Yrotation Zrotation
				JOINT Neck
				{
					OFFSET 0.000000 -1.263954 26.511002
					CHANNELS 3 Xrotation Yrotation Zrotation
					JOINT Head
					{
						OFFSET 0.000000 -0.000001 8.009659
						CHANNELS 3 Xrotation Yrotation Zrotation
						End Site
						{
							OFFSET 0.000000 6.393857 19.387894
						}
					}
				}
				JOINT RightShoulder
				{
					OFFSET -4.347950 0.605420 11.151199
					CHANNELS 3 Xrotation Yrotation Zrotation
					JOINT RightArm
					{
						OFFSET 0.000000 -0.000002 14.625793
						CHANNELS 3 Xrotation Yrotation Zrotation
						JOINT RightArmRoll
						{
							OFFSET 0.000000 -0.000001 7.383392
							CHANNELS 3 Xrotation Yrotation Zrotation
							JOINT RightForeArm
							{
								OFFSET 0.000000 -0.000004 21.505203
								CHANNELS 3 Xrotation Yrotation Zrotation
								JOINT RightForeArmRoll
								{
									OFFSET 0.000000 -0.000001 8.285324
									CHANNELS 3 Xrotation Yrotation Zrotation
									JOINT RightHand
									{
										OFFSET 0.000000 -0.000002 16.626801
										CHANNELS 3 Xrotation Yrotation Zrotation
										End Site
										{
											OFFSET 0.000000 0.000000 0.100006
										}
									}
								}
							}
						}
					}
				}
				JOINT LeftShoulder
				{
					OFFSET 4.347950 0.605420 11.151199
					CHANNELS 3 Xrotation Yrotation Zrotation
					JOINT LeftArm
					{
						OFFSET 0.000000 -0.000002 14.625793
						CHANNELS 3 Xrotation Yrotation Zrotation
						JOINT LeftArmRoll
						{
							OFFSET 0.000000 -0.000001 7.383392
							CHANNELS 3 Xrotation Yrotation Zrotation
							JOINT LeftForeArm
							{
								OFFSET 0.000000 -0.000004 21.505203
								CHANNELS 3 Xrotation Yrotation Zrotation
								JOINT LeftForeArmRoll
								{
									OFFSET 0.000000 -0.000001 8.285324
									CHANNELS 3 Xrotation Yrotation Zrotation
									JOINT LeftHand
									{
										OFFSET 0.000000 -0.000002 16.626801
										CHANNELS 3 Xrotation Yrotation Zrotation
										End Site
										{
											OFFSET 0.000000 0.000000 0.100006
										}
									}
								}
							}
						}
					}
				}
			}
		}
	}
	JOINT RightUpLeg
	{
		OFFSET -7.815100 1.202170 -1.433090
		CHANNELS 3 Xrotation Yrotation Zrotation
		JOINT RightUpLegRoll
		{
			OFFSET 0.000000 -0.000003 19.495895
			CHANNELS 3 Xrotation Yrotation Zrotation
			JOINT RightLeg
			{
				OFFSET 0.000000 0.000004 -24.142700
				CHANNELS 3 Xrotation Yrotation Zrotation
				JOINT RightLegRoll
				{
					OFFSET 0.000000 -0.000004 24.221703
					CHANNELS 3 Xrotation Yrotation Zrotation
					JOINT RightFoot
					{
						OFFSET 0.000000 -0.000003 20.160500
						CHANNELS 3 Xrotation Yrotation Zrotation
						JOINT RightToeBase
						{
							OFFSET 0.000000 -0.000003 16.853195
							CHANNELS 3 Xrotation Yrotation Zrotation
							End Site
							{
								OFFSET 0.007143 0.940778 8.161865
							}
						}
					}
				}
			}
		}
	}
	JOINT LeftUpLeg
	{
		OFFSET 7.815102 1.202170 -1.433090
		CHANNELS 3 Xrotation Yrotation Zrotation
		JOINT LeftUpLegRoll
		{
			OFFSET 0.000000 -0.000003 19.496002
			CHANNELS 3 Xrotation Yrotation Zrotation
			JOINT LeftLeg
			{
				OFFSET 0.000000 -0.000004 24.142593
				CHANNELS 3 Xrotation Yrotation Zrotation
				JOINT LeftLegRoll
				{
					OFFSET 0.000000 -0.000004 24.445602
					CHANNELS 3 Xrotation Yrotation Zrotation
					JOINT LeftFoot
					{
						OFFSET 0.000000 -0.000004 19.936600
						CHANNELS 3 Xrotation Yrotation Zrotation
						JOINT LeftToeBase
						{
							OFFSET 0.000000 -0.000003 16.853195
							CHANNELS 3 Xrotation Yrotation Zrotation
							End Site
							{
								OFFSET -0.032013 0.940780 8.161865
							}
						}
					}
				}
			}
		}
	}
}
MOTION
Frames: 7
Frame Time: 0.041667
42.713299 -0.342703 83.163689 2.146738 0.972806 8.138297 -1.576700 0.195604 0.342640 0.848309 0.385110 0.688705 2.493339 0.393329 0.684041 7.428444 2.965644 -3.849670 -2.827804 -4.080551 -3.726838 -16.583245 2.291822 -17.876919 -161.450728 -176.715695 -105.810886 0.000000 0.000003 0.000001 11.064405 6.089269 0.220494 0.000000 -0.000003 -3.000291 -5.000218 -7.998753 0.000165 -12.483175 13.075660 11.886798 -170.284607 186.643552 110.781044 0.000000 0.000019 -0.000001 13.250167 -8.390620 1.771584 -0.000003 -0.000007 2.999985 -5.000228 7.998730 -0.000169 -18.306884 -149.139120 6.733082 -179.999991 0.000006 -0.262999 128.883498 3.629491 -0.146503 0.000006 -0.000001 2.127229 89.146372 3.560125 16.465431 25.942785 -7.350901 0.633810 -29.481613 152.089052 0.114026 -0.000003 -0.000006 -0.194288 -56.930173 -4.937249 -0.292299 0.000002 0.000004 -1.114452 87.911986 -2.952065 -18.725309 25.812178 7.353121 -0.487630 
42.744499 -0.244565 83.159294 2.205941 0.977490 8.230260 -1.584808 0.199471 0.339424 0.832076 0.392840 0.682374 2.477111 0.400985 0.677619 7.469449 2.996265 -3.896956 -2.866147 -4.185265 -3.768612 -16.590724 2.330956 -17.888549 -161.512472 -176.770555 -105.873533 0.000000 0.000003 0.000001 11.093280 6.070225 0.220353 -0.000001 -0.000003 -3.000290 -5.000220 -7.998753 0.000162 -12.490602 13.036144 11.894641 -170.264240 186.742235 110.731081 0.000000 0.000019 0.000001 13.206314 -8.400589 1.768048 -0.000002 -0.000007 2.999989 -5.000229 7.998730 -0.000164 -18.292307 -149.166304 6.752343 -179.999991 0.000007 -0.281002 128.936650 3.600141 -0.115008 0.000003 0.000003 2.188072 89.170913 3.601344 16.284762 25.931773 -7.350941 0.619775 -29.569931 152.186054 0.197272 -0.000003 -0.000005 -0.193783 -56.846216 -4.955422 -0.289053 -0.000003 0.000006 -1.099322 87.865889 -2.946708 -18.728507 25.811783 7.353160 -0.486850 
42.752499 -0.245996 83.236984 2.269208 0.986816 8.325931 -1.594690 0.201106 0.334876 0.812322 0.396121 0.673352 2.457361 0.404156 0.668557 7.510216 3.048176 -3.940826 -2.898302 -4.303827 -3.806860 -16.589725 2.363951 -17.883973 -161.587372 -176.811263 -105.967038 0.000001 0.000003 -0.000001 11.141366 6.036684 0.219272 -0.000001 -0.000004 -3.000282 -5.000221 -7.998753 0.000164 -12.496134 13.015716 11.901326 -170.244323 186.844059 110.690749 0.000000 0.000019 0.000002 13.156530 -8.402927 1.763531 -0.000003 -0.000007 2.999986 -5.000229 7.998730 -0.000164 -18.271270 -149.210141 6.771552 -179.999991 0.000005 -0.304007 129.005212 3.567471 -0.072847 0.000003 0.000000 2.264640 89.200727 3.653806 16.056595 25.915814 -7.351034 0.599683 -29.667606 152.296389 0.293553 -0.000004 -0.000006 -0.197463 -56.749347 -4.981502 -0.296980 -0.000001 0.000005 -1.095258 87.804868 -2.949271 -18.687223 25.812086 7.353201 -0.486636 
42.800598 -0.274704 83.317802 2.335088 1.000068 8.424462 -1.606027 0.200821 0.329234 0.789669 0.395573 0.662108 2.434710 0.403474 0.657322 7.550350 3.118134 -3.981606 -2.923427 -4.433824 -3.841860 -16.581051 2.390993 -17.865420 -161.673118 -176.839103 -106.087140 0.000000 0.000003 -0.000003 11.205374 5.990475 0.217389 -0.000000 -0.000004 -3.000280 -5.000221 -7.998752 0.000163 -12.500168 13.012286 11.907412 -170.223682 186.947168 110.659119 -0.000000 0.000019 0.000001 13.102763 -8.398303 1.758261 -0.000002 -0.000007 2.999990 -5.000230 7.998730 -0.000161 -18.241861 -149.270342 6.791760 -179.999991 0.000007 -0.331000 129.090261 3.531488 -0.023050 0.000003 0.000001 2.354411 89.232767 3.715713 15.786077 25.896328 -7.351174 0.575190 -29.769762 152.417953 0.399238 -0.000002 -0.000004 -0.204956 -56.637974 -5.013570 -0.314253 -0.000002 0.000006 -1.101072 87.729955 -2.958855 -18.604942 25.812899 7.353241 -0.486850 
42.800598 -0.249015 83.388496 2.402117 1.016495 8.525021 -1.618507 0.198927 0.322729 0.764743 0.391823 0.649119 2.409788 0.399569 0.644376 7.589506 3.202884 -4.019609 -2.940690 -4.572806 -3.873884 -16.566004 2.412270 -17.834976 -161.767771 -176.855359 -106.229276 0.000001 0.000003 -0.000000 11.282027 5.933432 0.214901 -0.000001 -0.000004 -3.000282 -5.000220 -7.998753 0.000165 -12.503225 13.023785 11.913477 -170.201224 187.049771 110.635199 0.000000 0.000019 -0.000001 13.047066 -8.387427 1.752480 -0.000003 -0.000007 2.999986 -5.000228 7.998731 -0.000166 -18.202862 -149.343807 6.812844 -179.999991 0.000008 -0.363006 129.192892 3.492224 0.033375 0.000004 0.000002 2.454862 89.264009 3.785217 15.478114 25.874618 -7.351304 0.547922 -29.871423 152.548573 0.510389 -0.000002 -0.000004 -0.215903 -56.510642 -5.049728 -0.339113 -0.000002 0.000004 -1.115533 87.642023 -2.975194 -18.485144 25.814111 7.353278 -0.487401 
42.816601 -0.187867 83.485596 2.468854 1.035367 8.626750 -1.631808 0.195738 0.315599 0.738168 0.385494 0.634853 2.383216 0.393069 0.630187 7.627295 3.299205 -4.055144 -2.949223 -4.718349 -3.903181 -16.545578 2.427979 -17.794653 -161.868954 -176.861274 -106.389349 0.000001 0.000003 0.000001 11.367939 5.867381 0.211971 -0.000001 -0.000003 -3.000278 -5.000220 -7.998753 0.000162 -12.505804 13.048026 11.920085 -170.175816 187.150093 110.618049 0.000001 0.000019 0.000001 12.991592 -8.370948 1.746416 -0.000002 -0.000007 2.999988 -5.000228 7.998731 -0.000166 -18.152363 -149.430305 6.836138 -179.999991 0.000008 -0.397007 129.314196 3.450938 0.094976 0.000004 -0.000000 2.563460 89.291418 3.860283 15.137680 25.851993 -7.351427 0.519521 -29.968114 152.685382 0.623984 -0.000004 -0.000006 -0.229938 -56.365771 -5.088056 -0.369727 -0.000002 0.000005 -1.137450 87.542002 -2.997522 -18.331227 25.815636 7.353322 -0.488148 
42.829700 -0.196105 83.572800 2.533829 1.055915 8.728827 -1.645627 0.191564 0.308077 0.710567 0.377207 0.619786 2.355613 0.384602 0.615221 7.663338 3.403838 -4.088490 -2.948192 -4.868008 -3.929976 -16.520887 2.438321 -17.746628 -161.974466 -176.858050 -106.562897 0.000001 0.000003 0.000000 11.459936 5.794153 0.208750 -0.000001 -0.000004 -3.000283 -5.000219 -7.998752 0.000164 -12.508324 13.082944 11.927782 -170.146364 187.246289 110.606779 0.000001 0.000019 0.000002 12.938278 -8.349572 1.740302 -0.000003 -0.000007 2.999986 -5.000228 7.998730 -0.000164 -18.088749 -149.527649 6.861848 -179.999991 0.000009 -0.434000 129.455212 3.408252 0.161499 0.000006 -0.000002 2.677708 89.311875 3.939366 14.769963 25.830075 -7.351506 0.491672 -30.054171 152.827901 0.735080 -0.000006 -0.000006 -0.246698 -56.201891 -5.126636 -0.404350 -0.000004 0.000007 -1.165620 87.430936 -3.025293 -18.146657 25.817350 7.353353 -0.488984 
